<?xml version="1.0" standalone="no"?>
<!DOCTYPE svg PUBLIC "-//W3C//DTD SVG 20010904//EN"
 "http://www.w3.org/TR/2001/REC-SVG-20010904/DTD/svg10.dtd">
<svg version="1.0" xmlns="http://www.w3.org/2000/svg"
 width="1000.000000pt" height="1000.000000pt" viewBox="0 0 1000.000000 1000.000000"
 preserveAspectRatio="xMidYMid meet">
<metadata>
Created by potrace 1.11, written by Peter Selinger 2001-2013
</metadata>
<g transform="translate(0.000000,1000.000000) scale(0.100000,-0.100000)"
fill="#000000" stroke="none">
<path d="M0 5000 l0 -5000 5000 0 5000 0 0 5000 0 5000 -5000 0 -5000 0 0
-5000z m4040 1850 l0 -1480 480 0 480 0 0 740 0 740 475 0 475 0 0 740 0 740
955 0 955 0 0 -740 0 -740 -475 0 -475 0 0 -740 0 -740 -480 0 -480 0 0 -370
0 -370 478 -2 477 -3 3 -742 2 -743 475 0 475 0 0 -740 0 -740 -955 0 -955 0
0 740 0 740 -475 0 -475 0 0 745 0 745 -480 0 -480 0 0 -1485 0 -1485 -955 0
-955 0 0 3335 0 3335 955 0 955 0 0 -1480z"/>
</g>
</svg>
